<?xml version="1.0" ?><!DOCTYPE svg  PUBLIC '-//W3C//DTD SVG 1.1//EN'  'http://www.w3.org/Graphics/SVG/1.1/DTD/svg11.dtd'><svg enable-background="new 0 0 100 100" id="Lager_1" version="1.1" viewBox="0 0 100 100" xml:space="preserve" xmlns="http://www.w3.org/2000/svg" xmlns:xlink="http://www.w3.org/1999/xlink">

<defs>
    <linearGradient id="grad1" x1="0%" y1="0%" x2="70%" y2="100%">
        <stop offset="0%" style="stop-color:#FFFFFF;" />
        <stop offset="100%" style="stop-color:#AA99FF;" />
    </linearGradient>
</defs>
<rect width="100" height="100" fill="url(#grad1)" />

<g><path d="M170.6,483.3h-6v-16.2h6c1.7,0,3.2,0.5,4.4,1.6c1.9,1.9,1.7,3.9,1.7,6.5c0,1,0,1.9,0,2.7   c1.9-3.2,1.4-7.4-1.3-10.2L136.5,429c-3.3-3.3-11.9-3.8-11.9,3.4V468c-0.1-0.1-0.1-0.1-0.2-0.2l-0.5-0.5v3.4h-4v12.6h-4v-12.6h-4   v-3.5h11.8L85.7,429c-3.3-3.3-11.9-3.8-11.9,3.4v34.7h10.7v3.5h-7v2.8h6v3.5h-6v6.2h-3.7v31.5c0,7.4,8.6,6.9,11.9,3.6l38.8-38.8   c0.1-0.1,0.1-0.1,0.2-0.2v35.3c0,7.4,8.6,6.9,11.9,3.6l35.2-35.2C171.4,483.3,171,483.3,170.6,483.3z M94.2,483.3l-0.7-2.4h-5   l-0.8,2.4h-4.2l5.9-16.2h3.1l5.9,16.2H94.2z M104.4,483.5c-2.5,0-4.5-0.5-6.1-2.1l2.5-2.5c0.8,0.8,2.3,1.1,3.6,1.1   c1.6,0,2.3-0.5,2.3-1.5c0-0.4-0.1-0.7-0.3-1c-0.2-0.2-0.5-0.4-1.1-0.4l-2-0.3c-1.4-0.2-2.5-0.7-3.2-1.4c-0.7-0.8-1.1-1.9-1.1-3.2   c0-3,2.2-5.1,5.9-5.1c2.3,0,4.1,0.5,5.4,1.9l-2.5,2.5c-1-1-2.4-1-3.1-1c-1.4,0-2,0.8-2,1.5c0,0.2,0.1,0.5,0.3,0.8   c0.2,0.2,0.5,0.4,1.1,0.5l2,0.3c1.5,0.2,2.5,0.7,3.2,1.3c0.9,0.8,1.2,2,1.2,3.5C110.6,481.7,107.8,483.5,104.4,483.5z M141.9,470.7   h-7v2.8h6v3.5h-6v6.2h-4v-16.2h11V470.7z M158.8,483.3h-3.2l-2.6-8l-2.6,8h-3.2l-4.4-16.2h4.2l2.1,8.5l2.6-8.5h2.8l2.6,8.5l2.1-8.5   h4.2L158.8,483.3z" fill="#06000B"/><polygon fill="#06000B" points="89.6,477.6 92.4,477.6 91,473.3  "/><path d="M172.3,471.6c-0.4-0.5-0.9-0.9-1.9-0.9h-1.7v9.1h1.7c1,0,1.5-0.4,1.9-0.9c0.3-0.5,0.4-0.9,0.4-3.6   C172.7,472.5,172.6,472.1,172.3,471.6z" fill="#06000B"/></g><g><g><path d="M77.5,39.1c0,11.1-3.7,20.8-9.2,23.5c-1.1,0.5-4.3,0.9-5.4,0.7c-4.6-0.7-11.1-11-11.1-24.2    s6.2-24.2,11.1-24c0.9,0,4.1,0.4,4.9,0.7C73.6,18,77.5,27.5,77.5,39.1z" fill="#414140"/><ellipse cx="62.8" cy="39.3" fill="#06000B" rx="11.9" ry="24.1"/></g><path d="M94,42.5c5.4,5.4,1.3,18.2-6,25.5c-7.3,7.3-15.9,7.2-21.2,1.8c-5.4-5.4-5.5-13.9,1.8-21.2   C75.8,41.2,88.6,37.1,94,42.5z" fill="#ECDFBB"/><path d="M44.7,55.3c2.9-7,16.3-8.3,25.8-4.4s12.8,11.8,9.9,18.9c-2.9,7-10.7,10.5-20.3,6.6S41.9,62.4,44.7,55.3z" fill="#F9EDC8"/><line fill="none" stroke="#929292" stroke-linecap="round" stroke-linejoin="round" stroke-miterlimit="10" stroke-width="14" x1="18.8" x2="60.2" y1="42.6" y2="40"/><g><path d="M37.9,41.3c0,11.8-3.7,22-9.2,24.9c-1.1,0.5-4.3,0.9-5.4,0.7c-4.6-0.7-11.1-11.6-11.1-25.6    S18.3,15.7,23.2,16c0.9,0,4.1,0.4,4.9,0.7C34,19,37.9,29,37.9,41.3z" fill="#414140"/><ellipse cx="23.2" cy="41.5" fill="#06000B" rx="11.9" ry="25.5"/></g><line fill="none" stroke="#929292" stroke-linecap="round" stroke-linejoin="round" stroke-miterlimit="10" stroke-width="14" x1="10.5" x2="21" y1="43.1" y2="42.5"/><g><path d="M57.5,71.5c0,2.5-2,4.6-6.5,4.6s-9.5-2.7-9.5-4.6c0-1.6,5-4.6,9.5-4.6S57.5,69,57.5,71.5z" fill="#5E402A"/><path d="M55.7,70.1c0,0-2.6-1.9-5.2-1.8c-2.6,0.1-5.3,1.5-5.3,1.5s3.7-1.2,5.6-0.8c1.8,0.4,4.9,1.2,4.9,1.2" fill="#704B34"/><path d="M55.5,72.9c0,0-2.6,1.9-5.2,1.8c-2.6-0.1-5.3-1.5-5.3-1.5s3.7,1.2,5.6,0.8c1.8-0.4,4.9-1.2,4.9-1.2" fill="#704B34"/><path d="M51.9,71.1c0,0-8.8-0.2-8.8,0.2c0,0.3,4.6,0.1,6,0.2c1.4,0.1,5.8,0.1,6,0C55.2,71.4,54,71.1,51.9,71.1z" fill="#704B34"/></g><g><path d="M60.6,74.6c-1.8-1.7-2-4.6,1.1-7.9s8.5-5.1,9.8-3.8c1.2,1.1-0.1,6.8-3.2,10.1    C65.3,76.3,62.4,76.3,60.6,74.6z" fill="#5E402A"/><path d="M62.9,74.3c0,0,3.2-0.6,4.8-2.6s2.5-4.9,2.5-4.9s-1.6,3.6-3.2,4.6c-1.6,1-4.3,2.8-4.3,2.8" fill="#704B34"/><path d="M61,72.2c0,0,0.4-3.2,2.2-5c1.8-1.8,4.7-2.8,4.7-2.8s-3.4,1.9-4.4,3.5c-0.9,1.6-2.5,4.4-2.5,4.4" fill="#704B34"/><path d="M64.8,70.7c0,0,6.2-6.3,5.8-6.6c-0.2-0.2-3.2,3.3-4.2,4.3c-1,0.9-4.1,4.2-4.1,4.4S63.3,72.3,64.8,70.7z" fill="#704B34"/></g><g><path d="M64.8,72.8c1.1,2.3,0.1,5-4,6.9c-4.1,1.9-9.8,1.5-10.6-0.2c-0.7-1.5,2.7-6.2,6.8-8.1    C61.1,69.5,63.8,70.5,64.8,72.8z" fill="#5E402A"/><path d="M62.6,72.2c0,0-3.2-0.6-5.5,0.5c-2.3,1.2-4.2,3.6-4.2,3.6s2.9-2.7,4.7-3c1.9-0.4,5-0.9,5-0.9" fill="#704B34"/><path d="M63.5,74.9c0,0-1.6,2.8-4,3.8s-5.5,0.8-5.5,0.8s3.9-0.4,5.4-1.6c1.5-1.2,4-3.2,4-3.2" fill="#704B34"/><path d="M59.5,74.8c0,0-8.1,3.5-7.9,3.9c0.1,0.3,4.2-1.9,5.5-2.3c1.3-0.5,5.4-2.3,5.5-2.5    C62.7,73.6,61.5,73.9,59.5,74.8z" fill="#704B34"/></g></g></svg>
