<?xml version="1.0" ?><!DOCTYPE svg  PUBLIC '-//W3C//DTD SVG 1.1//EN'  'http://www.w3.org/Graphics/SVG/1.1/DTD/svg11.dtd'><svg enable-background="new 0 0 100 100" id="Lager_1" version="1.1" viewBox="0 0 100 100" xml:space="preserve" xmlns="http://www.w3.org/2000/svg" xmlns:xlink="http://www.w3.org/1999/xlink"><g><path d="M170.6,483.3h-6v-16.2h6c1.7,0,3.2,0.5,4.4,1.6c1.9,1.9,1.7,3.9,1.7,6.5c0,1,0,1.9,0,2.7   c1.9-3.2,1.4-7.4-1.3-10.2L136.5,429c-3.3-3.3-11.9-3.8-11.9,3.4V468c-0.1-0.1-0.1-0.1-0.2-0.2l-0.5-0.5v3.4h-4v12.6h-4v-12.6h-4   v-3.5h11.8L85.7,429c-3.3-3.3-11.9-3.8-11.9,3.4v34.7h10.7v3.5h-7v2.8h6v3.5h-6v6.2h-3.7v31.5c0,7.4,8.6,6.9,11.9,3.6l38.8-38.8   c0.1-0.1,0.1-0.1,0.2-0.2v35.3c0,7.4,8.6,6.9,11.9,3.6l35.2-35.2C171.4,483.3,171,483.3,170.6,483.3z M94.2,483.3l-0.7-2.4h-5   l-0.8,2.4h-4.2l5.9-16.2h3.1l5.9,16.2H94.2z M104.4,483.5c-2.5,0-4.5-0.5-6.1-2.1l2.5-2.5c0.8,0.8,2.3,1.1,3.6,1.1   c1.6,0,2.3-0.5,2.3-1.5c0-0.4-0.1-0.7-0.3-1c-0.2-0.2-0.5-0.4-1.1-0.4l-2-0.3c-1.4-0.2-2.5-0.7-3.2-1.4c-0.7-0.8-1.1-1.9-1.1-3.2   c0-3,2.2-5.1,5.9-5.1c2.3,0,4.1,0.5,5.4,1.9l-2.5,2.5c-1-1-2.4-1-3.1-1c-1.4,0-2,0.8-2,1.5c0,0.2,0.1,0.5,0.3,0.8   c0.2,0.2,0.5,0.4,1.1,0.5l2,0.3c1.5,0.2,2.5,0.7,3.2,1.3c0.9,0.8,1.2,2,1.2,3.5C110.6,481.7,107.8,483.5,104.4,483.5z M141.9,470.7   h-7v2.8h6v3.5h-6v6.2h-4v-16.2h11V470.7z M158.8,483.3h-3.2l-2.6-8l-2.6,8h-3.2l-4.4-16.2h4.2l2.1,8.5l2.6-8.5h2.8l2.6,8.5l2.1-8.5   h4.2L158.8,483.3z" fill="#06000B"/><polygon fill="#06000B" points="89.6,477.6 92.4,477.6 91,473.3  "/><path d="M172.3,471.6c-0.4-0.5-0.9-0.9-1.9-0.9h-1.7v9.1h1.7c1,0,1.5-0.4,1.9-0.9c0.3-0.5,0.4-0.9,0.4-3.6   C172.7,472.5,172.6,472.1,172.3,471.6z" fill="#06000B"/></g><g><g><path d="M52.7,75c0,0,25.6-6.9,20.7-30.9s-11-27.7-5.5-37.7S43.2,23.8,35.3,44.3c-6.1,15.8-0.5,28,16.5,31" fill="#296639"/><path d="M46.2,81.9c0,0-19,6.3-27.1-14.4S12.9,41.1,4.9,35.8S28.2,38,42.6,50.2c11.1,9.4,13.3,21.4,4.2,31.4" fill="#479958"/></g><g><path d="M42.8,75c0,6.4-5.7,10.4-12.7,10.4s-12.7-4-12.7-10.4c0-6.4,5.7-9.7,12.7-9.7S42.8,68.6,42.8,75z" fill="#993829"/><path d="M31.3,66.3c0,0-1.5-2.7-4.9-2.5c0,0,2.2,1.3,2.4,3.2c0,0-2.4-1.5-4.9,0.3c0,0,3.4,0.2,4,0.7    c0,0-2.4,3.6-1.2,5.1c0,0,1-3,2.5-3.9c0,0,3.1,1.1,2.6,3.3c0,0,1.7-1.5,0.1-3.7c0,0,1.5-0.9,3.2,0.5c0,0,0.3-2.2-3-2.2    c0,0,2.1-1.7,4.1-1.5C36.2,65.5,33.5,63.8,31.3,66.3z" fill="#66AA5B"/></g><g><g><path d="M27.1,84.8c0,0,0.9,6.7,3.5,9c3.1,2.8,14.5,2.4,21.9,0.8s14.9-0.9,23.5-1.7c14-1.3,21.4-9.6,20.3-16.1     c-1.1-6.9-1.6-8.6-1.6-8.6L27.1,84.8z" fill="#7C6654"/><path d="M48.6,72.4c-6.1,2.9-18.1,2.3-20.5,7.6s-1.2,12.2,13,11.4c14.2-0.8,24-3.6,32.7-3     C82.4,89,97.6,82,95,69.2c-1.5-7.3-13-13.6-23.2-14.5S54.3,69.7,48.6,72.4z" fill="#5C412D"/></g><path d="M57.7,65.8c0,0,3.5-4.2,6.7-6.5c3.2-2.3,3.9-2.9,8.1-2.4s11.6,2.6,12.6,3.9s1,3.5,0.7,3.7    c-0.3,0.1,0.9-1.2-3.1-3.8s-7.9-2.5-9.8-2.7c-1.9-0.2-4.6-0.7-5.7,0.5C66.1,59.6,57.7,65.8,57.7,65.8z" fill="#7C6654"/><path d="M28.8,82c0,0,0,0.3-0.1,0.8c-0.1,1.6,0,5.2,2.2,5.9c2.9,0.9,7.3,1.1,10.3,1c3-0.1,7.5,0,7.5,0    s-3.9-0.8-9.5-1.1c-5.6-0.2-7.9-0.6-9.2-1.9" fill="#7C6654"/></g></g></svg>